<svg xmlns="http://www.w3.org/2000/svg" xmlns:xlink="http://www.w3.org/1999/xlink" width="2000" zoomAndPan="magnify" viewBox="0 0 1500 1499.999933" height="2000" preserveAspectRatio="xMidYMid meet" version="1.0"><defs><clipPath id="28de5af276"><path d="M 1009 241 L 1196 241 L 1196 347 L 1009 347 Z M 1009 241 " clip-rule="nonzero"/></clipPath><clipPath id="0444ff2cdb"><path d="M 1174.875 381.210938 L 1000.40625 281.402344 L 1067.8125 163.570312 L 1242.28125 263.378906 Z M 1174.875 381.210938 " clip-rule="nonzero"/></clipPath><clipPath id="dbca82deda"><path d="M 1174.875 381.210938 L 1000.40625 281.402344 L 1067.8125 163.570312 L 1242.28125 263.378906 Z M 1174.875 381.210938 " clip-rule="nonzero"/></clipPath><clipPath id="13ad6cb70f"><path d="M 1174.875 381.210938 L 1000.40625 281.402344 L 1067.8125 163.570312 L 1242.28125 263.378906 Z M 1174.875 381.210938 " clip-rule="nonzero"/></clipPath><clipPath id="2515848fd8"><path d="M 1000 238 L 1199 238 L 1199 351 L 1000 351 Z M 1000 238 " clip-rule="nonzero"/></clipPath><clipPath id="41d2144c08"><path d="M 1174.875 381.210938 L 1000.40625 281.402344 L 1067.8125 163.570312 L 1242.28125 263.378906 Z M 1174.875 381.210938 " clip-rule="nonzero"/></clipPath><clipPath id="959384800e"><path d="M 1174.875 381.210938 L 1000.40625 281.402344 L 1067.8125 163.570312 L 1242.28125 263.378906 Z M 1174.875 381.210938 " clip-rule="nonzero"/></clipPath><clipPath id="efeb8099cc"><path d="M 1174.875 381.210938 L 1000.40625 281.402344 L 1067.8125 163.570312 L 1242.28125 263.378906 Z M 1174.875 381.210938 " clip-rule="nonzero"/></clipPath><clipPath id="e6e7f1760d"><path d="M 293 34.152344 L 1385.1875 34.152344 L 1385.1875 1336 L 293 1336 Z M 293 34.152344 " clip-rule="nonzero"/></clipPath><clipPath id="bbc466f6d4"><path d="M 114.6875 1269 L 1207 1269 L 1207 1465.902344 L 114.6875 1465.902344 Z M 114.6875 1269 " clip-rule="nonzero"/></clipPath></defs><g clip-path="url(#28de5af276)"><g clip-path="url(#0444ff2cdb)"><g clip-path="url(#dbca82deda)"><g clip-path="url(#13ad6cb70f)"><path fill="#ce796b" d="M 1009.347656 281.992188 L 1195.820312 241.3125 L 1190.296875 346.824219 Z M 1009.347656 281.992188 " fill-opacity="1" fill-rule="nonzero"/></g></g></g></g><g clip-path="url(#2515848fd8)"><g clip-path="url(#41d2144c08)"><g clip-path="url(#959384800e)"><g clip-path="url(#efeb8099cc)"><path fill="#ffffff" d="M 1198.445312 238.230469 L 1192.566406 350.238281 L 1000.480469 281.417969 Z M 1188.011719 343.402344 L 1193.203125 244.382812 L 1018.199219 282.570312 Z M 1188.011719 343.402344 " fill-opacity="1" fill-rule="nonzero"/></g></g></g></g><path fill="#2854ad" d="M 645.609375 423.230469 C 642.683594 422.558594 639.742188 421.964844 636.804688 421.351562 L 637.269531 430.65625 C 639.449219 431.019531 641.628906 431.359375 643.804688 431.757812 C 648.304688 432.582031 652.777344 433.539062 657.21875 434.585938 L 660.535156 476.894531 L 664.410156 436.402344 C 666.21875 436.886719 668.023438 437.375 669.8125 437.890625 C 678.296875 440.398438 686.726562 443.40625 694.09375 447.867188 C 697.707031 450.109375 701.230469 452.734375 703.210938 456.121094 C 704.351562 457.816406 704.691406 459.539062 704.871094 461.609375 L 705.199219 468.40625 C 705.628906 477.453125 706.152344 486.507812 706.742188 495.558594 C 707.328125 486.507812 707.855469 477.453125 708.285156 468.40625 L 708.609375 461.609375 C 708.671875 459.199219 708.28125 456.292969 707.019531 454.09375 C 704.742188 449.40625 700.921875 446.167969 697.140625 443.328125 C 693.28125 440.511719 689.132812 438.3125 684.933594 436.296875 C 680.734375 434.265625 676.429688 432.558594 672.097656 430.945312 C 663.414062 427.78125 654.527344 425.382812 645.609375 423.230469 " fill-opacity="1" fill-rule="nonzero"/><path fill="#2854ad" d="M 672.554688 326.8125 C 670.726562 323.054688 667.660156 320.457031 664.625 318.179688 C 661.527344 315.914062 658.195312 314.144531 654.824219 312.523438 C 651.457031 310.898438 648.003906 309.523438 644.523438 308.238281 C 639.867188 306.535156 635.128906 305.125 630.367188 303.855469 L 630.367188 310.691406 C 631.101562 310.863281 631.847656 310.988281 632.582031 311.160156 L 635.246094 345.113281 L 638.355469 312.617188 C 639.808594 313.003906 641.253906 313.394531 642.691406 313.8125 C 649.496094 315.828125 656.265625 318.242188 662.179688 321.824219 C 665.078125 323.613281 667.910156 325.726562 669.496094 328.441406 C 670.414062 329.804688 670.6875 331.183594 670.828125 332.847656 L 671.09375 338.304688 C 671.441406 345.570312 671.859375 352.835938 672.332031 360.101562 C 672.800781 352.835938 673.222656 345.570312 673.566406 338.304688 L 673.832031 332.847656 C 673.878906 330.914062 673.566406 328.582031 672.554688 326.8125 " fill-opacity="1" fill-rule="nonzero"/><path fill="#f59e0b" d="M 1236.007812 222.6875 L 673.839844 292.699219 L 1236.007812 362.707031 Z M 1236.007812 222.6875 " fill-opacity="1" fill-rule="nonzero"/><g clip-path="url(#e6e7f1760d)"><path fill="#2854ad" d="M 618.007812 300.953125 C 602.738281 297.6875 587.300781 295.558594 571.789062 294.308594 L 571.789062 302.941406 C 574.207031 303.101562 576.625 303.257812 579.039062 303.445312 C 592.117188 304.425781 605.125 306.042969 618.007812 308.253906 L 618.007812 350.246094 C 603.640625 347.449219 587.050781 345.339844 569.003906 344.105469 L 569.003906 256.597656 L 618.007812 256.597656 Z M 557.832031 293.410156 C 550.527344 293.042969 543.214844 292.777344 535.910156 292.699219 C 527.195312 292.679688 518.472656 292.878906 509.757812 293.273438 L 509.757812 302.023438 C 518.449219 301.707031 527.152344 301.574219 535.851562 301.683594 C 543.179688 301.671875 550.511719 301.878906 557.832031 302.195312 L 557.832031 343.464844 C 549.527344 343.078125 540.980469 342.867188 532.230469 342.867188 C 523.597656 342.867188 515.15625 343.078125 506.953125 343.449219 L 506.953125 256.597656 L 557.832031 256.597656 Z M 495.785156 294.144531 C 480.292969 295.316406 464.855469 297.265625 449.578125 300.378906 L 449.578125 307.515625 L 449.722656 307.492188 C 463.921875 305.28125 478.25 303.710938 492.636719 302.871094 C 493.683594 302.796875 494.734375 302.742188 495.785156 302.6875 L 495.785156 344.078125 C 477.75 345.292969 461.160156 347.394531 446.78125 350.179688 L 446.78125 256.597656 L 495.785156 256.597656 Z M 1368.003906 1275.777344 C 1365.117188 1276.429688 1362.183594 1276.957031 1359.308594 1277.558594 L 1350.59375 1279.046875 C 1338.996094 1280.964844 1327.359375 1282.171875 1315.777344 1283.070312 C 1310.007812 1283.59375 1304.164062 1283.726562 1298.417969 1284.113281 C 1292.625 1284.296875 1286.871094 1284.539062 1281.089844 1284.539062 C 1269.550781 1284.574219 1258.082031 1284.574219 1246.597656 1283.882812 L 1238.011719 1283.511719 L 1229.429688 1282.925781 L 1220.871094 1282.332031 C 1218.023438 1282.109375 1215.171875 1281.777344 1212.320312 1281.496094 C 1200.945312 1280.476562 1189.578125 1279.179688 1178.28125 1277.632812 C 1155.675781 1274.585938 1133.210938 1270.417969 1110.902344 1265.808594 L 1094.1875 1262.226562 L 1077.542969 1258.246094 L 1069.234375 1256.265625 L 1060.957031 1254.101562 L 1044.402344 1249.792969 C 1022.398438 1243.609375 1000.488281 1237.269531 978.734375 1230.09375 L 962.414062 1224.796875 L 946.175781 1219.148438 L 929.9375 1213.523438 L 913.796875 1207.53125 C 908.421875 1205.527344 902.996094 1203.683594 897.636719 1201.597656 L 881.578125 1195.3125 L 865.324219 1189.105469 L 847.859375 1182.582031 C 803.917969 1166.425781 758.167969 1154.121094 711.375 1146.8125 L 687.277344 915.09375 L 723.746094 822.265625 L 677.621094 822.265625 L 649.355469 550.480469 C 684.601562 542.453125 706.742188 530.863281 706.742188 517.957031 C 706.742188 503.097656 677.289062 489.96875 632.273438 482.03125 L 632.273438 402.71875 C 657.042969 396.371094 672.332031 387.679688 672.332031 378.078125 C 672.332031 367.898438 655.097656 358.722656 627.578125 352.285156 L 627.578125 256.828125 L 673.835938 256.828125 C 673.835938 256.828125 644.503906 202.828125 561.78125 183.199219 C 563.71875 180.472656 564.832031 177.441406 564.832031 174.226562 C 564.832031 165.699219 557.199219 158.371094 546.25 155.082031 L 532.394531 34.203125 L 518.539062 155.082031 C 507.585938 158.371094 499.953125 165.699219 499.953125 174.226562 C 499.953125 177.441406 501.070312 180.472656 503.007812 183.199219 C 420.285156 202.828125 390.953125 256.828125 390.953125 256.828125 L 437.210938 256.828125 L 437.210938 303.222656 C 426.65625 305.898438 416.25 309.308594 406.425781 314.414062 C 403.144531 316.21875 399.929688 318.226562 397.054688 320.789062 C 395.648438 322.109375 394.269531 323.496094 393.191406 325.1875 C 392.03125 326.785156 391.285156 328.792969 391.03125 330.8125 L 390.953125 332.351562 L 391.019531 333.71875 L 391.160156 336.445312 L 391.449219 341.890625 L 392.128906 352.796875 L 392.808594 341.890625 L 393.09375 336.445312 L 393.230469 333.71875 L 393.304688 332.359375 L 393.496094 331.195312 C 394.183594 328.089844 396.59375 325.527344 399.28125 323.476562 C 402.023438 321.417969 405.164062 319.792969 408.378906 318.378906 C 412.785156 316.390625 417.40625 314.847656 422.101562 313.5 L 426.589844 345.113281 L 428.34375 311.816406 C 428.441406 311.789062 428.539062 311.761719 428.640625 311.734375 C 431.476562 311.042969 434.339844 310.414062 437.210938 309.820312 L 437.210938 352.214844 C 409.496094 358.644531 392.128906 367.851562 392.128906 378.078125 C 392.128906 387.6875 407.46875 396.402344 432.308594 402.757812 L 432.308594 420.5625 C 430.804688 420.859375 429.300781 421.109375 427.800781 421.421875 C 409.914062 425.238281 392.023438 430.027344 375.449219 438.644531 C 371.363281 440.890625 367.355469 443.390625 363.777344 446.59375 C 362.019531 448.230469 360.300781 449.953125 358.960938 452.058594 C 357.515625 454.0625 356.585938 456.554688 356.273438 459.074219 L 356.175781 460.996094 L 356.257812 462.699219 L 356.433594 466.09375 L 356.789062 472.882812 L 357.636719 486.460938 L 358.484375 472.882812 L 359.011719 462.699219 L 359.105469 461.003906 L 359.34375 459.539062 C 360.191406 455.683594 363.203125 452.492188 366.546875 449.9375 C 369.960938 447.367188 373.878906 445.34375 377.886719 443.578125 C 383.367188 441.105469 389.128906 439.183594 394.984375 437.503906 L 400.574219 476.894531 L 402.757812 435.40625 C 402.878906 435.371094 403.003906 435.335938 403.125 435.308594 C 411.78125 433.1875 420.554688 431.421875 429.394531 430.011719 C 430.363281 429.867188 431.339844 429.742188 432.308594 429.589844 L 432.308594 481.992188 C 387.179688 489.921875 357.636719 503.078125 357.636719 517.957031 C 357.636719 530.683594 379.1875 542.128906 413.59375 550.140625 L 385.292969 822.265625 L 339.171875 822.265625 L 375.640625 915.09375 L 346.902344 1191.4375 L 454.191406 557.207031 C 477.671875 560.164062 504.144531 561.835938 532.191406 561.835938 C 537.113281 561.835938 541.972656 561.773438 546.792969 561.675781 L 572.507812 1141.9375 C 565.578125 1142.585938 558.667969 1143.339844 551.78125 1144.222656 L 533.046875 1146.972656 L 514.464844 1150.613281 C 508.277344 1151.75 502.175781 1153.507812 496.054688 1154.960938 C 493 1155.714844 489.949219 1156.476562 486.914062 1157.296875 L 477.863281 1160.039062 C 453.746094 1167.1875 430.3125 1176.402344 407.976562 1187.527344 C 385.6875 1198.753906 364.476562 1211.867188 344.976562 1226.972656 C 325.605469 1242.132812 307.375 1258.929688 293.226562 1278.71875 C 313.808594 1266.140625 335.308594 1256.410156 356.929688 1247.859375 C 378.664062 1239.523438 400.589844 1232.582031 422.757812 1227.316406 C 467.050781 1216.613281 511.882812 1211.964844 556.414062 1212.164062 C 578.691406 1212.484375 600.886719 1213.386719 622.988281 1216.128906 C 634.046875 1217.019531 645.042969 1219.078125 656.042969 1220.507812 C 661.542969 1221.234375 667.011719 1222.484375 672.484375 1223.4375 C 677.957031 1224.492188 683.449219 1225.265625 688.894531 1226.503906 C 732.546875 1235.640625 775.574219 1248.433594 817.910156 1264.042969 L 833.796875 1269.863281 L 850.816406 1276.226562 L 868.019531 1282.53125 C 873.773438 1284.601562 879.601562 1286.5 885.394531 1288.449219 L 902.828125 1294.195312 C 908.671875 1296.027344 914.550781 1297.773438 920.433594 1299.5 L 938.09375 1304.644531 L 955.921875 1309.289062 C 979.667969 1315.53125 1003.847656 1320.425781 1028.089844 1324.738281 C 1052.476562 1328.558594 1076.914062 1332.011719 1101.644531 1333.53125 C 1126.324219 1335.1875 1151.097656 1335.941406 1175.886719 1334.640625 C 1182.0625 1334.46875 1188.277344 1333.875 1194.445312 1333.503906 C 1200.613281 1333.148438 1206.800781 1332.535156 1212.957031 1331.816406 C 1216.046875 1331.457031 1219.117188 1331.152344 1222.195312 1330.746094 L 1231.402344 1329.421875 L 1240.589844 1328.074219 L 1249.742188 1326.429688 C 1274.09375 1321.796875 1298.152344 1315.628906 1321.191406 1306.65625 C 1332.730469 1302.316406 1343.988281 1297.242188 1354.839844 1291.480469 C 1360.226562 1288.511719 1365.554688 1285.519531 1370.679688 1282.148438 C 1375.808594 1278.84375 1380.808594 1275.265625 1385.347656 1271.246094 C 1379.613281 1273.136719 1373.804688 1274.511719 1368.003906 1275.777344 " fill-opacity="1" fill-rule="nonzero"/></g><g clip-path="url(#bbc466f6d4)"><path fill="#3571e9" d="M 1180.8125 1407.507812 L 1172.089844 1408.992188 C 1160.5 1410.914062 1148.855469 1412.121094 1137.277344 1413.023438 C 1131.511719 1413.542969 1125.667969 1413.667969 1119.921875 1414.0625 C 1114.121094 1414.242188 1108.371094 1414.484375 1102.59375 1414.484375 C 1091.050781 1414.519531 1079.574219 1414.519531 1068.09375 1413.828125 L 1059.515625 1413.460938 L 1050.9375 1412.878906 L 1042.378906 1412.285156 C 1039.527344 1412.058594 1036.667969 1411.726562 1033.824219 1411.449219 C 1022.441406 1410.421875 1011.085938 1409.125 999.785156 1407.570312 C 977.171875 1404.523438 954.710938 1400.359375 932.398438 1395.753906 L 915.695312 1392.175781 L 899.050781 1388.191406 L 890.742188 1386.214844 L 882.453125 1384.046875 L 865.898438 1379.742188 C 843.90625 1373.554688 821.984375 1367.214844 800.238281 1360.039062 L 783.921875 1354.746094 L 767.683594 1349.097656 L 751.441406 1343.46875 L 735.296875 1337.480469 C 729.925781 1335.46875 724.496094 1333.625 719.140625 1331.542969 L 703.074219 1325.261719 L 686.820312 1319.058594 L 669.355469 1312.527344 C 622.707031 1295.371094 574.046875 1282.488281 524.230469 1275.390625 C 518.027344 1274.414062 511.722656 1273.894531 505.476562 1273.136719 C 499.199219 1272.542969 492.984375 1271.667969 486.675781 1271.316406 C 474.066406 1270.582031 461.523438 1269.621094 448.859375 1269.710938 C 423.636719 1269.214844 398.304688 1270.96875 373.28125 1274.171875 L 354.546875 1276.921875 L 335.964844 1280.5625 C 329.78125 1281.695312 323.675781 1283.457031 317.554688 1284.90625 C 314.5 1285.664062 311.453125 1286.425781 308.417969 1287.242188 L 299.367188 1289.988281 C 275.246094 1297.128906 251.816406 1306.351562 229.476562 1317.472656 C 207.191406 1328.703125 185.980469 1341.816406 166.480469 1356.910156 C 147.109375 1372.082031 128.875 1388.878906 114.730469 1408.667969 C 135.308594 1396.078125 156.808594 1386.351562 178.429688 1377.800781 C 200.164062 1369.472656 222.09375 1362.53125 244.261719 1357.253906 C 288.550781 1346.5625 333.382812 1341.914062 377.917969 1342.109375 C 400.195312 1342.425781 422.390625 1343.335938 444.492188 1346.070312 C 455.546875 1346.96875 466.542969 1349.027344 477.546875 1350.445312 C 483.046875 1351.183594 488.511719 1352.433594 493.988281 1353.386719 C 499.460938 1354.4375 504.953125 1355.210938 510.398438 1356.453125 C 554.046875 1365.589844 597.082031 1378.382812 639.410156 1393.996094 L 655.304688 1399.8125 L 672.320312 1406.167969 L 689.523438 1412.46875 C 695.269531 1414.550781 701.097656 1416.445312 706.898438 1418.394531 L 724.328125 1424.140625 C 730.171875 1425.976562 736.058594 1427.722656 741.9375 1429.449219 L 759.589844 1434.589844 L 777.417969 1439.230469 C 801.164062 1445.480469 825.34375 1450.371094 849.585938 1454.6875 C 873.980469 1458.511719 898.414062 1461.964844 923.148438 1463.480469 C 947.828125 1465.136719 972.59375 1465.890625 997.390625 1464.578125 C 1003.558594 1464.414062 1009.785156 1463.824219 1015.953125 1463.457031 C 1022.121094 1463.09375 1028.304688 1462.484375 1034.464844 1461.761719 C 1037.550781 1461.394531 1040.617188 1461.097656 1043.6875 1460.683594 L 1052.90625 1459.363281 L 1062.085938 1458.023438 L 1071.25 1456.367188 C 1095.597656 1451.746094 1119.652344 1445.570312 1142.699219 1436.605469 C 1154.234375 1432.261719 1165.492188 1427.191406 1176.335938 1421.425781 C 1181.734375 1418.457031 1187.0625 1415.464844 1192.179688 1412.09375 C 1197.3125 1408.785156 1202.304688 1405.214844 1206.851562 1401.195312 C 1201.105469 1403.074219 1195.308594 1404.457031 1189.5 1405.726562 C 1186.613281 1406.375 1183.683594 1406.90625 1180.8125 1407.507812 " fill-opacity="1" fill-rule="nonzero"/></g><path fill="#f59e0b" d="M 1094.789062 188.105469 L 723.449219 256.605469 L 1085.429688 149.113281 Z M 1094.789062 188.105469 " fill-opacity="1" fill-rule="nonzero"/><path fill="#f59e0b" d="M 1150.976562 440.992188 L 723.449219 331.984375 L 1159.109375 401.722656 Z M 1150.976562 440.992188 " fill-opacity="1" fill-rule="nonzero"/></svg>